<svg width="53" height="46" viewBox="0 0 53 46" fill="none" xmlns="http://www.w3.org/2000/svg">
<path d="M43.1285 8.5H38.3924L26.7165 28.7232L15.0415 8.5H10.3045L0.970215 24.6667L12.7017 44.9861H22.0063L24.3776 40.8833L12.6443 20.662L10.3322 24.6667L19.7221 40.9324H14.9841L5.6517 24.6667L12.6739 12.5046L24.4054 32.8241H29.0285L40.76 12.5046L47.7545 24.7167L38.4202 40.8833H33.7387L43.1008 24.6667L40.7313 20.662L29.0563 40.8833L31.4276 44.9861H40.7313L52.4628 24.6667L43.1285 8.5Z" fill="#FAFAFA" stroke="#FAFAFA" stroke-width="0.25" stroke-miterlimit="10"/>
<path d="M17.3248 4.4444L26.7165 20.6111L36.1081 4.4444H40.7322L38.448 0.389771H14.9859L12.7017 4.4444H17.3248ZM22.0637 4.4444H31.3702L26.7165 12.5L22.0637 4.4444V4.4444Z" fill="#FAFAFA" stroke="#FAFAFA" stroke-width="0.25" stroke-miterlimit="10"/>
</svg>
